<?xml version="1.0" encoding="UTF-8"?>
<svg xmlns="http://www.w3.org/2000/svg" xmlns:xlink="http://www.w3.org/1999/xlink" version="1.1" viewBox="0 0 268 259">
  <defs>
    <style>
      .cls-1 {
        stroke: #55584a;
      }

      .cls-1, .cls-2 {
        fill: none;
        stroke-miterlimit: 10;
        stroke-width: 3px;
      }

      .cls-2 {
        stroke: #8e9087;
      }

      .cls-3 {
        fill: #55584a;
      }
    </style>
  </defs>
  <!-- Generator: Adobe Illustrator 28.6.0, SVG Export Plug-In . SVG Version: 1.2.0 Build 709)  -->
  <g>
    <g id="Layer_1">
      <path class="cls-3" d="M139.46,121.78c8.65,0,15.7,6.98,15.7,15.55s-7.04,15.55-15.7,15.55-15.7-6.98-15.7-15.55,7.04-15.55,15.7-15.55M139.46,118.78c-10.33,0-18.7,8.31-18.7,18.55s8.37,18.55,18.7,18.55,18.7-8.31,18.7-18.55-8.37-18.55-18.7-18.55h0Z"/>
      <path class="cls-3" d="M0,0"/>
      <path class="cls-3" d="M0,0"/>
      <path class="cls-1" d="M158.21,103.54s14.55-29.57,30.91-36.53"/>
    </g>
    <g id="Layer_3">
      <path class="cls-1" d="M87.4,116.39s-26.88-13.95-37.39-8.72"/>
      <path class="cls-1" d="M121.61,132.1c-63.68-15.25-79.67,23.59-79.67,23.59"/>
      <path class="cls-1" d="M158.14,225.57s-16.8-19.45-16.91-42.87c-.11-23.42-.08-26.33-.08-26.33"/>
      <path class="cls-1" d="M211.4,192.17c-30.77-48.46-58.65-42.7-58.65-42.7"/>
      <path class="cls-1" d="M69.72,57.15s30.19,4.87,51.81,44.58"/>
      <path class="cls-1" d="M127.58,150.34c-37.73,38.06-27.68,61.38-27.68,61.38"/>
      <path class="cls-1" d="M141.7,117.36c-2.13-5.2-12.52-32.07,1.17-55.66,3.08-5.3,6.82-9.49,10.52-12.76"/>
      <path class="cls-1" d="M195.79,136.51s-28.06-11.42-38.04-5.25"/>
      <path class="cls-2" d="M119.21,15.4"/>
    </g>
    <g id="Border">
      <path class="cls-3" d="M127.96,34c13.27,0,19.91,4.33,22.2,14.47l.95,4.22,3.62-2.37c.09-.06,9.05-5.88,17.43-5.88,8.9,0,13.53,6.83,14.15,20.89l.21,4.62,4.14-2.07c.07-.04,7.25-3.59,14.17-3.59,3.96,0,6.87,1.12,8.89,3.42,3.27,3.72,4.3,10.55,3.04,20.29l-.33,2.56,2.48.71c.17.05,16.59,4.86,19.46,16.71,2.17,8.93-3.63,19.94-17.23,32.72l-2.46,2.32,2.6,2.17c.2.16,19.67,16.65,17.57,32.66-1.05,8.02-7.53,14.85-19.24,20.3l-1.11.52-.43,1.15c-.12.31-11.9,30.93-36.12,30.93-6.71,0-13.92-2.33-21.43-6.93l-2.6-1.59-1.55,2.63c-.09.16-9.65,16.02-28.36,16.02-8.49,0-17.68-3.24-27.32-9.63l-.87-.57-1.04.09s-1.74.14-4.44.14c-7.52,0-25.78-1.12-32.95-11.51-4.02-5.83-4.06-14.04-.13-24.41l1.27-3.34-3.51-.67c-.06-.01-6.04-1.17-12.3-3.68-7.7-3.09-12.37-6.76-13.51-10.61-1.04-3.54.95-7.74,5.92-12.48l2.64-2.51-2.97-2.11c-.19-.14-19.26-13.82-17.22-27.87,1.29-8.91,10.91-16.48,28.59-22.51l2.97-1.01-1.15-2.92c-.1-.26-10.26-26.48-1.48-39.36,3.22-4.73,8.63-7.03,16.54-7.03.59,0,1.19.01,1.8.04l2.51.1.55-2.45s.87-3.8,3.36-7.43c3.11-4.54,7.29-6.85,12.45-6.85s10.94,2.13,17.65,6.32l2.23,1.39,1.67-2.03c10.56-12.81,12.13-13.98,18.72-13.98M127.96,31c-8.18,0-10.52,2.32-21.03,15.07-7.89-4.93-14.2-6.78-19.24-6.78-15.12,0-18.73,16.63-18.73,16.63-.66-.03-1.3-.04-1.93-.04-37.71,0-17.84,50.49-17.84,50.49-61.26,20.87-12.14,55.66-12.14,55.66-24.32,23.19,21.4,31.89,21.4,31.89-13.94,36.73,22.52,39.99,35.88,39.99,2.88,0,4.69-.15,4.69-.15,11.24,7.45,20.9,10.13,28.98,10.13,20.64,0,30.95-17.5,30.95-17.5,8.61,5.27,16.26,7.37,23,7.37,26.65,0,38.93-32.88,38.93-32.88,46.16-21.45,2.34-57.98,2.34-57.98,43.82-41.17-3.47-54.5-3.47-54.5,2.83-21.98-6.03-27.1-14.91-27.1-7.75,0-15.51,3.91-15.51,3.91-.82-18.78-8.85-23.76-17.15-23.76-9.37,0-19.08,6.37-19.08,6.37-2.88-12.79-12.22-16.81-25.12-16.81h0Z"/>
      <path class="cls-1" d="M90.96,111.24"/>
      <path class="cls-3" d="M0,0"/>
      <path class="cls-1" d="M217.89,68.23"/>
      <image width="564" height="782" transform="translate(-304 344)" xlink:href="Branding/colorpalletetwo.jpeg"/>
    </g>
  </g>
</svg>