<?xml version="1.0" encoding="UTF-8"?>
<svg xmlns="http://www.w3.org/2000/svg" version="1.1" viewBox="0 0 800 600">
  <defs>
    <style>
      .cls-1 {
        fill: #d2bdac;
      }

      .cls-2 {
        fill: #55584a;
      }
    </style>
  </defs>
  <!-- Generator: Adobe Illustrator 28.6.0, SVG Export Plug-In . SVG Version: 1.2.0 Build 709)  -->
  <g>
    <g id="Layer_1">
      <path class="cls-2" d="M81.35,194.98c-.46,18.19-.73,36.39-.82,54.59-.02,4.82,6.17,9.38,10.53,6.04,9.66-7.38,11.2-21.34,12.95-32.56,2.44-15.69,4.93-31.37,7.78-47,5.56-30.39,12.18-60.65,21-90.27,2.3-7.74,4.72-15.46,7.42-23.07,1.85-5.22,4.16-14.24,9.78-16.64l-10.53-6.04c-1.18,23.53-5.53,46.93-8.89,70.22-3.46,24.02-6.93,48.05-10.39,72.07-1.27,8.78,10.42,12.4,13.5,3.72,9.4-26.46,18.8-52.93,28.2-79.39,4.62-13.02,9.23-26.04,13.87-39.05,3.94-11.05,7.75-23.36,15.18-32.66l-11.95-4.95c4.27,33.05-2.24,65.9-9.03,98.14-7.25,34.39-14.49,68.79-21.74,103.18-1.85,8.79,11.64,12.55,13.5,3.72,7.38-35.04,14.77-70.07,22.15-105.11,6.89-32.72,13.45-66.41,9.12-99.94-.67-5.16-7.68-10.3-11.95-4.95-7.74,9.69-12.32,21.2-16.57,32.74-5.07,13.75-9.85,27.6-14.75,41.41-9.84,27.71-19.68,55.42-29.53,83.13l13.5,3.72c3.56-24.67,7.11-49.35,10.67-74.02s7.9-47.87,9.11-71.99c.29-5.87-6.04-7.96-10.53-6.04-11.28,4.81-15.27,21.94-18.71,32.34-4.61,13.96-8.64,28.11-12.25,42.37-7.77,30.61-13.67,61.68-18.69,92.85-1.35,8.35-2.45,16.76-4,25.08-.67,3.59-1.43,7.17-2.51,10.66-.51,1.63-1.35,5.15-2.77,6.23l10.53,6.04c.09-18.2.36-36.4.82-54.59.23-9.01-13.77-9.01-14,0h0Z"/>
      <path class="cls-2" d="M212.92,148.48c-11.48-2.48-20.17,6.34-25,15.82-6.73,13.19-9.69,29.78-7.5,44.44,1.98,13.25,11.95,22.29,25.43,17.35,14.2-5.21,20.69-19.9,22.64-33.96,1.71-12.38.85-38.02-16.14-39.49-5.88-.51-7.93,6.19-6.04,10.53,7.57,17.47,12.24,36.17,15.44,54.9,1.51,8.86,15.01,5.11,13.5-3.72-3.42-20.03-8.76-39.58-16.85-58.24l-6.04,10.53c-2.41-.21.05,1.68.73,3.41,1.05,2.68,1.63,5.65,1.92,8.5.66,6.68-.16,13.48-2.16,19.87-1.53,4.88-4.01,9.88-8.34,12.84-2.02,1.39-5.76,3.36-7.83,1.86-3.78-2.74-2.96-11.78-2.8-15.74.26-6.43,1.36-12.78,3.3-18.91,1.38-4.37,3.27-8.88,6.13-12.51,1.09-1.39,2.38-2.73,3.94-3.57.99-.54,1.64-.47,1.97-.4,8.78,1.9,12.54-11.59,3.72-13.5h0Z"/>
      <path class="cls-2" d="M242.04,144.1c-.27,70.28,1.74,140.55,6.07,210.7h14c-6.52-49.4-9.38-99.28-9.1-149.1.12-21.18-.49-45.54,8.25-65.34,1.45-3.28,6.48-13.59,10.71-10.62,2.54,1.79,3.75,6.29,4.53,9.08,1.36,4.84,1.97,9.81,2.06,14.83.17,9.87-1.58,21.09-8.57,28.58s-18.85,7.33-27.36,12.89c-7.52,4.91-.51,17.03,7.07,12.09,5.08-3.32,10.79-4.25,16.39-6.31,4.89-1.8,9.23-4.27,12.98-7.93,8.01-7.83,11.76-18.95,13.01-29.84,1.26-10.92.32-22.86-3.84-33.12-3.47-8.55-10.77-16.93-20.97-14.61-9.87,2.24-15.9,12.38-19.44,21.04-4.74,11.61-6.44,24.46-7.55,36.87-2.49,28-1.48,56.53-.37,84.58,1.28,32.41,3.97,64.76,8.21,96.91.5,3.78,2.86,6.96,7,7,3.61.04,7.23-3.24,7-7-4.34-70.14-6.35-140.42-6.07-210.7.04-9.01-13.96-9.02-14,0h0Z"/>
      <path class="cls-2" d="M321.24,45.09c-3.79,37.47-11.37,74.36-17.8,111.43-3.16,18.22-6.01,36.51-8.06,54.9-1.04,9.37-1.86,18.76-2.41,28.17-.4,6.88-2.99,19.59,3.21,24.73,4,3.32,10.11,2.29,11.7-3.09,3.41-11.58,6.83-23.17,10.24-34.75,2.55-8.66-10.95-12.36-13.5-3.72-3.41,11.58-6.83,23.17-10.24,34.75l11.7-3.09c1.12.93.36-2.1.37-3.36.03-2.55.19-5.12.32-7.67.22-4.43.5-8.86.84-13.28.67-8.72,1.57-17.43,2.64-26.11,2.18-17.69,5.15-35.27,8.28-52.81,6.28-35.26,13.1-70.44,16.71-106.11.91-8.96-13.1-8.89-14,0h0Z"/>
      <path class="cls-2" d="M356.96,176.44c-16.06-3.06-22.36,18.44-24.77,30.37-2.88,14.27-3.46,29.59-.4,43.89,2.73,12.75,10.77,24.88,25.34,24.02,13.74-.81,21.41-13.24,23.62-25.61,1.43-8-8.02-11.82-12.79-5.39-3.7,4.98-8.76,10.15-15.06,11.5-1.51.32-3.74.84-5.08-.19-1.88-1.43-2.45-5.52-2.95-7.59-3.12-12.79-2.76-27.12.5-39.84,1.09-4.25,7.93-23.86,14.85-15.67,1.54,1.82,2.35,4.97,2.31,7.28-.05,2.97-1.53,3.54-3.91,5-6.28,3.86-12.93,6.29-20.22,7.39-3.77.56-5.77,5.27-4.89,8.61,1.06,4.01,4.89,5.45,8.61,4.89,14.08-2.11,35.57-10.02,34.34-27.35-.98-13.86-13.64-26.84-27.84-19.58-13.31,6.81-17.34,24.66-18.97,38.17-.98,8.07-1.03,16.24-.06,24.31s2.19,17.51,7.79,23.61c13.45,14.64,34.19-2.07,42.67-13.48l-12.79-5.39c-1.11,6.22-3.87,15.13-10.97,15.38-8.43.3-10.41-9.97-11.49-16.44-1.61-9.62-1.32-19.96.15-29.57.82-5.34,2.06-10.69,3.95-15.75.92-2.47,2.03-5.02,3.6-7.17,1.05-1.44,2.62-1.53.76-1.89,8.8,1.68,12.58-11.81,3.72-13.5h0Z"/>
      <path class="cls-2" d="M404.17,239.06c.46,73.58.92,147.15,1.38,220.73.13,20.97.26,41.95.39,62.92h14c-4.56-65.71-4.4-131.62-3.69-197.45.17-16.01.19-32.04.73-48.05.49-14.62,1.04-29.97,5.49-44.03.85-2.67,1.88-5.26,3.38-7.64.23-.37,1.58-1.73,1.62-2.13.15-1.56.32.71-.31-.4.02.04-1.32-.29-.97-.38-.92.23-.23-.67.14.34.28.76.88,1.44,1.21,2.19,1.39,3.15,2.03,6.77,2.65,10.14,2.51,13.7,2.89,27.94,2.48,41.83s-1.96,28.8-5.15,42.86c-2.42,10.66-5.55,21.76-12.06,30.72-4.64,6.38,5.9,14.58,10.99,8.48,7.07-8.46,14.84-16.56,23.9-22.91,6.03-4.22,14.04-9.76,21.63-10.33,6.85-.51,9.92,8.1,11.6,13.44,2.47,7.81,3.66,15.98,4.3,24.13,2.96,37.37-3.53,76.11-25.4,107.2-6.45,9.17-13.75,17.93-22,25.54-7.18,6.63-16.1,13.26-26.12,14.4-3.79.43-6.96,2.91-7,7-.04,3.45,3.25,7.43,7,7,23.69-2.69,41.11-21.83,54.88-39.7,12.98-16.84,22.37-35.63,27.56-56.31s6.88-44.48,4.95-66.58c-1.41-16.12-4.43-44.06-23.37-49.36-10.25-2.87-21.38,2.93-29.9,8.08-12.29,7.43-22.77,17.53-31.94,28.5,3.66,2.83,7.33,5.66,10.99,8.48,6.35-8.73,9.87-19.62,12.5-29.98,3.52-13.88,5.39-28.24,6.26-42.52.92-15.18.58-30.46-1.38-45.54-1.34-10.3-3.78-31.58-18.47-30.64-13.42.86-18.05,20.42-19.96,30.79-3.06,16.61-3.54,33.61-3.81,50.45-.58,36.54-.93,73.1-.76,109.65.19,40.94,1.2,81.89,4.03,122.74.62,8.89,14.06,9.11,14,0l-1.38-220.73-.39-62.92c-.06-9.01-14.06-9.03-14,0h0Z"/>
      <path class="cls-2" d="M485.49,227c5.96,47.22,12.91,94.31,21.1,141.19,3.89,22.25,7.84,44.53,12.52,66.63,1.82,8.57,3.74,18.63,8.94,25.91,4.34,6.08,11.95,7.72,17.37,1.9,5.11-5.49,6.29-14.53,7.66-21.57,1.45-7.48,2.15-16.07,5.63-22.95,4.05-8.02-8.02-15.12-12.09-7.07-5.92,11.73-5.91,25.36-9.68,37.76-.26.86-.62,2.06-.94,2.76-.19.41-.66,1.01-.75,1.41-.22.94-.15.25-.16.24-.21-.46,4.48-.16,4.49-.36.04-.97-1.81-3.41-2.22-4.47-3.38-8.62-4.91-17.98-6.69-27.02-8.04-40.77-15.09-81.74-21.28-122.83-3.59-23.8-6.87-47.65-9.88-71.53-.48-3.78-2.88-6.96-7-7-3.42-.04-7.47,3.25-7,7h0Z"/>
      <path class="cls-2" d="M556.95,292.27c8.86,62.83,16.86,126.21,12.9,189.78-.56,9,13.44,8.96,14,0,4.03-64.83-4.37-129.44-13.4-193.5-.53-3.77-5.3-5.76-8.61-4.89-4.04,1.06-5.41,4.89-4.89,8.61h0Z"/>
      <path class="cls-2" d="M553.53,240.88c9.01,0,9.02-14,0-14s-9.02,14,0,14h0Z"/>
      <path class="cls-2" d="M610.26,262.19c-14.6,4.6-19.23,23.4-21.09,36.7-2.41,17.24-2.07,36.3,5.64,52.26,3.09,6.41,8.03,12.07,14.87,14.52,3.29,1.17,7.98,2.01,11.48,1.34,1.62-.31-.32-1.08-.08-.39.29.86.56,1.72.78,2.6.65,2.53,1.07,5.12,1.47,7.7,2.75,17.89,4.5,36.54,2.54,54.59-1.19,10.98-9.43,41.49-25.96,27.12-6.77-5.89-16.71,3.98-9.9,9.9,6.97,6.06,15.6,9.71,24.82,6.74,6.76-2.18,12.03-7.18,15.83-13.03,9.79-15.05,10.44-35.45,9.81-52.81-.35-9.81-1.38-19.58-2.68-29.31-1.04-7.78-1.21-19.8-8.23-24.95-6.1-4.48-14.39.5-19.62-5.94s-6.8-15.4-7.56-23.07c-1.02-10.37-.59-21.13,1.65-31.32,1.22-5.54,3.82-17.2,9.96-19.14,8.56-2.7,4.91-16.22-3.72-13.5h0Z"/>
      <path class="cls-2" d="M667.52,256.08c-8.14-1.74-15.23.39-19.37,7.96-4.1,7.5-4.95,16.87-4.14,25.24,1.36,14.07,7.29,25.68,18.09,34.69,3.97,3.31,8.19,6.4,11.54,10.38,4.44,5.26,6.85,11.84,8.49,18.44,4.17,16.77,4.65,35.18,3.45,52.36-.55,7.9-1.39,16.86-5.37,23.89-4.1,7.24-12.66,12.17-20.93,12.02-9.01-.16-9.01,13.84,0,14,16.09.28,30.56-10.8,35.99-25.61,5.46-14.88,5.21-32.43,4.45-48.03-.79-16.37-2.23-34.31-10.43-48.89-5.6-9.94-14.85-15.29-22.53-23.24-5.06-5.24-7.66-12.08-8.64-19.25-.66-4.85-.6-10.02.63-14.77.83-3.2,1.34-6.49,5.05-5.69,8.79,1.88,12.54-11.61,3.72-13.5h0Z"/>
    </g>
    <g id="Layer_2">
      <path class="cls-1" d="M91.53,198.92c-.46,18.19-.73,36.39-.82,54.59-.02,4.82,6.17,9.38,10.53,6.04,9.66-7.38,11.2-21.34,12.95-32.56,2.44-15.69,4.93-31.37,7.78-47,5.56-30.39,12.18-60.65,21-90.27,2.3-7.74,4.72-15.46,7.42-23.07,1.85-5.22,4.16-14.24,9.78-16.64l-10.53-6.04c-1.18,23.53-5.53,46.93-8.89,70.22-3.46,24.02-6.93,48.05-10.39,72.07-1.27,8.78,10.42,12.4,13.5,3.72,9.4-26.46,18.8-52.93,28.2-79.39,4.62-13.02,9.23-26.04,13.87-39.05,3.94-11.05,7.75-23.36,15.18-32.66l-11.95-4.95c4.27,33.05-2.24,65.9-9.03,98.14-7.25,34.39-14.49,68.79-21.74,103.18-1.85,8.79,11.64,12.55,13.5,3.72,7.38-35.04,14.77-70.07,22.15-105.11,6.89-32.72,13.45-66.41,9.12-99.94-.67-5.16-7.68-10.3-11.95-4.95-7.74,9.69-12.32,21.2-16.57,32.74-5.07,13.75-9.85,27.6-14.75,41.41-9.84,27.71-19.68,55.42-29.53,83.13l13.5,3.72c3.56-24.67,7.11-49.35,10.67-74.02s7.9-47.87,9.11-71.99c.29-5.87-6.04-7.96-10.53-6.04-11.28,4.81-15.27,21.94-18.71,32.34-4.61,13.96-8.64,28.11-12.25,42.37-7.77,30.61-13.67,61.68-18.69,92.85-1.35,8.35-2.45,16.76-4,25.08-.67,3.59-1.43,7.17-2.51,10.66-.51,1.63-1.35,5.15-2.77,6.23l10.53,6.04c.09-18.2.36-36.4.82-54.59.23-9.01-13.77-9.01-14,0h0Z"/>
      <path class="cls-1" d="M216.1,157.43c-11.48-2.48-20.17,6.34-25,15.82-6.73,13.19-9.69,29.78-7.5,44.44,1.98,13.25,11.95,22.29,25.43,17.35,14.2-5.21,20.69-19.9,22.64-33.96,1.71-12.38.85-38.02-16.14-39.49-5.88-.51-7.93,6.19-6.04,10.53,7.57,17.47,12.24,36.17,15.44,54.9,1.51,8.86,15.01,5.11,13.5-3.72-3.42-20.03-8.76-39.58-16.85-58.24l-6.04,10.53c-2.41-.21.05,1.68.73,3.41,1.05,2.68,1.63,5.65,1.92,8.5.66,6.68-.16,13.48-2.16,19.87-1.53,4.88-4.01,9.88-8.34,12.84-2.02,1.39-5.76,3.36-7.83,1.86-3.78-2.74-2.96-11.78-2.8-15.74.26-6.43,1.36-12.78,3.3-18.91,1.38-4.37,3.27-8.88,6.13-12.51,1.09-1.39,2.38-2.73,3.94-3.57.99-.54,1.64-.47,1.97-.4,8.78,1.9,12.54-11.59,3.72-13.5h0Z"/>
      <path class="cls-1" d="M250.22,145.04c-.27,70.28,1.74,140.55,6.07,210.7h14c-6.52-49.4-9.38-99.28-9.1-149.1.12-21.18-.49-45.54,8.25-65.34,1.45-3.28,6.48-13.59,10.71-10.62,2.54,1.79,3.75,6.29,4.53,9.08,1.36,4.84,1.97,9.81,2.06,14.83.17,9.87-1.58,21.09-8.57,28.58-7.09,7.61-18.85,7.33-27.36,12.89-7.52,4.91-.51,17.03,7.07,12.09,5.08-3.32,10.79-4.25,16.39-6.31,4.89-1.8,9.23-4.27,12.98-7.93,8.01-7.83,11.76-18.95,13.01-29.84s.32-22.86-3.84-33.12c-3.47-8.55-10.77-16.93-20.97-14.61s-15.9,12.38-19.44,21.04c-4.74,11.61-6.44,24.46-7.55,36.87-2.49,28-1.48,56.53-.37,84.58,1.28,32.41,3.97,64.76,8.21,96.91.5,3.78,2.86,6.96,7,7,3.61.04,7.23-3.24,7-7-4.34-70.14-6.35-140.42-6.07-210.7.04-9.01-13.96-9.02-14,0h0Z"/>
      <path class="cls-1" d="M331.42,45.03c-3.79,37.47-11.37,74.36-17.8,111.43-3.16,18.22-6.01,36.51-8.06,54.9-1.04,9.37-1.86,18.76-2.41,28.17-.4,6.88-2.99,19.59,3.21,24.73,4,3.32,10.11,2.29,11.7-3.09,3.41-11.58,6.83-23.17,10.24-34.75,2.55-8.66-10.95-12.36-13.5-3.72-3.41,11.58-6.83,23.17-10.24,34.75l11.7-3.09c1.12.93.36-2.1.37-3.36.03-2.55.19-5.12.32-7.67.22-4.43.5-8.86.84-13.28.67-8.72,1.57-17.43,2.64-26.11,2.18-17.69,5.15-35.27,8.28-52.81,6.28-35.26,13.1-70.44,16.71-106.11.91-8.96-13.1-8.89-14,0h0Z"/>
      <path class="cls-1" d="M370.14,172.39c-16.06-3.06-22.36,18.44-24.77,30.37-2.88,14.27-3.46,29.59-.4,43.89,2.73,12.75,10.77,24.88,25.34,24.02,13.74-.81,21.41-13.24,23.62-25.61,1.43-8-8.02-11.82-12.79-5.39-3.7,4.98-8.76,10.15-15.06,11.5-1.51.32-3.74.84-5.08-.19-1.88-1.43-2.45-5.52-2.95-7.59-3.12-12.79-2.76-27.12.5-39.84,1.09-4.25,7.93-23.86,14.85-15.67,1.54,1.82,2.35,4.97,2.31,7.28-.05,2.97-1.53,3.54-3.91,5-6.28,3.86-12.93,6.29-20.22,7.39-3.77.56-5.77,5.27-4.89,8.61,1.06,4.01,4.89,5.45,8.61,4.89,14.08-2.11,35.57-10.02,34.34-27.35-.98-13.86-13.64-26.84-27.84-19.58-13.31,6.81-17.34,24.66-18.97,38.17-.98,8.07-1.03,16.24-.06,24.31s2.19,17.51,7.79,23.61c13.45,14.64,34.19-2.07,42.67-13.48l-12.79-5.39c-1.11,6.22-3.87,15.13-10.97,15.38-8.43.3-10.41-9.97-11.49-16.44-1.61-9.62-1.32-19.96.15-29.57.82-5.34,2.06-10.69,3.95-15.75.92-2.47,2.03-5.02,3.6-7.17,1.05-1.44,2.62-1.53.76-1.89,8.8,1.68,12.58-11.81,3.72-13.5h0Z"/>
      <path class="cls-1" d="M414.35,248.01c.46,73.58.92,147.15,1.38,220.73.13,20.97.26,41.95.39,62.92h14c-4.56-65.71-4.4-131.62-3.69-197.45.17-16.01.19-32.04.73-48.05.49-14.62,1.04-29.97,5.49-44.03.85-2.67,1.88-5.26,3.38-7.64.23-.37,1.58-1.73,1.62-2.13.15-1.56.32.71-.31-.4.02.04-1.32-.29-.97-.38-.92.23-.23-.67.14.34.28.76.88,1.44,1.21,2.19,1.39,3.15,2.03,6.77,2.65,10.14,2.51,13.7,2.89,27.94,2.48,41.83s-1.96,28.8-5.15,42.86c-2.42,10.66-5.55,21.76-12.06,30.72-4.64,6.38,5.9,14.58,10.99,8.48,7.07-8.46,14.84-16.56,23.9-22.91,6.03-4.22,14.04-9.76,21.63-10.33,6.85-.51,9.92,8.1,11.6,13.44,2.47,7.81,3.66,15.98,4.3,24.13,2.96,37.37-3.53,76.11-25.4,107.2-6.45,9.17-13.75,17.93-22,25.54-7.18,6.63-16.1,13.26-26.12,14.4-3.79.43-6.96,2.91-7,7-.04,3.45,3.25,7.43,7,7,23.69-2.69,41.11-21.83,54.88-39.7,12.98-16.84,22.37-35.63,27.56-56.31,5.41-21.54,6.88-44.48,4.95-66.58-1.41-16.12-4.43-44.06-23.37-49.36-10.25-2.87-21.38,2.93-29.9,8.08-12.29,7.43-22.77,17.53-31.94,28.5l10.99,8.48c6.35-8.73,9.87-19.62,12.5-29.98,3.52-13.88,5.39-28.24,6.26-42.52.92-15.18.58-30.46-1.38-45.54-1.34-10.3-3.78-31.58-18.47-30.64-13.42.86-18.05,20.42-19.96,30.79-3.06,16.61-3.54,33.61-3.81,50.45-.58,36.54-.93,73.1-.76,109.65.19,40.94,1.2,81.89,4.03,122.74.62,8.89,14.06,9.11,14,0l-1.38-220.73-.39-62.92c-.06-9.01-14.06-9.03-14,0h0Z"/>
      <path class="cls-1" d="M495.67,220.95c5.96,47.22,12.91,94.31,21.1,141.19,3.89,22.25,7.84,44.53,12.52,66.63,1.82,8.57,3.74,18.63,8.94,25.91,4.34,6.08,11.95,7.72,17.37,1.9,5.11-5.49,6.29-14.53,7.66-21.57,1.45-7.48,2.15-16.07,5.63-22.95,4.05-8.02-8.02-15.12-12.09-7.07-5.92,11.73-5.91,25.36-9.68,37.76-.26.86-.62,2.06-.94,2.76-.19.41-.66,1.01-.75,1.41-.22.94-.15.25-.16.24-.21-.46,4.48-.16,4.49-.36.04-.97-1.81-3.41-2.22-4.47-3.38-8.62-4.91-17.98-6.69-27.02-8.04-40.77-15.09-81.74-21.28-122.83-3.59-23.8-6.87-47.65-9.88-71.53-.48-3.78-2.88-6.96-7-7-3.42-.04-7.47,3.25-7,7h0Z"/>
      <path class="cls-1" d="M565.13,292.22c8.86,62.83,16.86,126.21,12.9,189.78-.56,9,13.44,8.96,14,0,4.03-64.83-4.37-129.44-13.4-193.5-.53-3.77-5.3-5.76-8.61-4.89-4.04,1.06-5.41,4.89-4.89,8.61h0Z"/>
      <path class="cls-1" d="M562.71,240.82c9.01,0,9.02-14,0-14s-9.02,14,0,14h0Z"/>
      <path class="cls-1" d="M620.44,262.14c-14.6,4.6-19.23,23.4-21.09,36.7-2.41,17.24-2.07,36.3,5.64,52.26,3.09,6.41,8.03,12.07,14.87,14.52,3.29,1.17,7.98,2.01,11.48,1.34,1.62-.31-.32-1.08-.08-.39.29.86.56,1.72.78,2.6.65,2.53,1.07,5.12,1.47,7.7,2.75,17.89,4.5,36.54,2.54,54.59-1.19,10.98-9.43,41.49-25.96,27.12-6.77-5.89-16.71,3.98-9.9,9.9s15.6,9.71,24.82,6.74c6.76-2.18,12.03-7.18,15.83-13.03,9.79-15.05,10.44-35.45,9.81-52.81-.35-9.81-1.38-19.58-2.68-29.31-1.04-7.78-1.21-19.8-8.23-24.95-6.1-4.48-14.39.5-19.62-5.94-5.02-6.18-6.8-15.4-7.56-23.07-1.02-10.37-.59-21.13,1.65-31.32,1.22-5.54,3.82-17.2,9.96-19.14,8.56-2.7,4.91-16.22-3.72-13.5h0Z"/>
      <path class="cls-1" d="M677.7,257.03c-8.14-1.74-15.23.39-19.37,7.96-4.1,7.5-4.95,16.87-4.14,25.24,1.36,14.07,7.29,25.68,18.09,34.69,3.97,3.31,8.19,6.4,11.54,10.38,4.44,5.26,6.85,11.84,8.49,18.44,4.17,16.77,4.65,35.18,3.45,52.36-.55,7.9-1.39,16.86-5.37,23.89-4.1,7.24-12.66,12.17-20.93,12.02-9.01-.16-9.01,13.84,0,14,16.09.28,30.56-10.8,35.99-25.61s5.21-32.43,4.45-48.03c-.79-16.37-2.23-34.31-10.43-48.89-5.6-9.94-14.85-15.29-22.53-23.24-5.06-5.24-7.66-12.08-8.64-19.25-.66-4.85-.6-10.02.63-14.77.83-3.2,1.34-6.49,5.05-5.69,8.79,1.88,12.54-11.61,3.72-13.5h0Z"/>
    </g>
  </g>
</svg>